<svg
    xmlns="http://www.w3.org/2000/svg"
    width="100%"
    height="100%"
    viewBox="0 0 481 478"
    fill="none"
>
    <path
    d="M134.575 27.3616L129.745 29.2228V29.2328L97.8422 55.7785L135.818 45.1085L136.205 44.4615L165.276 20.1752L134.575 27.3616Z"
    fill="#071C37"
    />
    <path
    d="M281.131 7.21589L263.798 2.11975V2.10979L256.622 0.766071L218.507 3.54308L248.244 10.0028L249.426 9.54498L281.131 7.21589Z"
    fill="#071C37"
    />
    <path
    d="M327.644 17.5575L326.849 17.2091H326.839L290.97 10.4806L314.684 32.1392L315.32 32.0894L341.339 36.9765L327.644 17.5575Z"
    fill="#071C37"
    />
    <path
    d="M452.473 126.318L431.632 92.1881H431.622L431.602 92.1582L421.017 93.3028L436.581 118.873L436.701 119.231L452.473 126.318Z"
    fill="#071C37"
    />
    <path
    d="M463.485 322.709H463.475L469.637 295.735L454.292 323.973L453.417 324.769L445.268 356.302L463.485 322.709Z"
    fill="#071C37"
    />
    <path
    d="M416.465 397.041H416.475L431.493 376.945L408.157 398.185L406.885 398.733L389.72 421.427L416.465 397.041Z"
    fill="#071C37"
    />
    <path
    d="M113.515 442.259L124.687 449.754L125.064 449.913L140.837 444.429L93.5587 410.876L81.8708 419.834L113.515 442.259Z"
    fill="#071C37"
    />
    <path
    d="M69.0301 76.2626L66.8038 78.1139L66.7939 78.104L60.0753 83.6978L37.8426 120.635L66.7044 99.0659L66.8932 98.2397L88.6887 61.9198L69.0301 76.2626Z"
    fill="#071C37"
    />
    <path
    d="M213.309 24.4253L171.557 19.2794L171.547 19.2993L170.633 19.6477L140.578 44.7502L188.304 45.5663L188.433 45.3474L188.632 45.1781L213.309 24.4253Z"
    fill="#071C37"
    />
    <path
    d="M470.999 203.865L467.779 168.471L467.49 167.635L446.58 150.017L448.865 175.548L448.766 176.045L470.999 203.865Z"
    fill="#071C37"
    />
    <path
    d="M453.515 319.012L472.112 284.796L472.41 283.214L465.86 247.093L450.346 275.47L450.008 275.779L453.515 319.012Z"
    fill="#071C37"
    />
    <path
    d="M409.334 392.976L421.932 353.037L422.449 352.818L451.37 326.611L442.266 361.806L440.984 364.175L409.334 392.976Z"
    fill="#071C37"
    />
    <path
    d="M338.825 447.694L380.806 429.529V429.539L383.578 427.01L404.052 399.937L362.658 417.684L362.25 417.724L338.825 447.694Z"
    fill="#071C37"
    />
    <path
    d="M225.037 448.42L199.862 465.938H199.872L251.335 474.349L252.498 474.229L279.242 457.398L225.097 448.44L225.037 448.42Z"
    fill="#071C37"
    />
    <path
    d="M162.424 112.403L169.977 77.5466L116.815 82.9215L107.433 125.263L162.424 112.403Z"
    fill="#071C37"
    />
    <path
    d="M262.416 44.7999L217.116 25.2614L217.106 25.2514L216.907 25.3311L192.09 46.2033L244.765 59.7798L262.416 44.7999Z"
    fill="#071C37"
    />
    <path
    d="M285.881 35.0356L250.391 12.521V12.531L249.844 12.5708L219.133 24.485L263.698 43.725L263.837 43.6055L285.881 35.0356Z"
    fill="#071C37"
    />
    <path
    d="M145.428 443.593L197.418 465.54L197.427 465.53L197.716 465.58L223.387 447.714L169.132 424.721L145.428 443.593Z"
    fill="#071C37"
    />
    <path
    d="M107.324 174.871L104.213 127.891L58.8131 147.937L62.083 199.904L107.324 174.871Z"
    fill="#071C37"
    />
    <path
    d="M165.157 152.327L162.453 113.946L107.185 126.866L110.275 173.537L165.157 152.327Z"
    fill="#071C37"
    />
    <path
    d="M336.39 72.4306L315.24 35.165H315.25L315.161 35.1451L290.563 37.0064L323.768 73.4757L323.937 73.406L336.39 72.4306Z"
    fill="#071C37"
    />
    <path
    d="M351.636 74.8293L343.208 40.3906L343.218 40.3806H343.188L317.198 35.5333L338.069 72.3012H338.139L351.636 74.8293Z"
    fill="#071C37"
    />
    <path
    d="M445.635 173.438L443.349 147.897V147.917L443.33 147.848L407.222 134.629L408.355 147.808V147.848L445.635 173.438Z"
    fill="#071C37"
    />
    <path
    d="M227.711 445.852L282.363 454.85V454.86L282.612 454.83L308.83 422.721L255.479 413.782L227.711 445.852Z"
    fill="#071C37"
    />
    <path
    d="M228.466 135.864L226.458 108.969V108.96L165.465 113.488L168.128 151.411L228.466 135.864Z"
    fill="#071C37"
    />
    <path
    d="M395.743 70.3204L372.059 53.3797V53.3698L368.342 81.727L381.054 90.8543L395.743 70.3204Z"
    fill="#071C37"
    />
    <path
    d="M292.53 126.697L291.467 113.329V113.319L229.499 108.979L231.467 135.286L292.53 126.697Z"
    fill="#071C37"
    />
    <path
    d="M339.391 75.6356L353.196 120.705L352.113 77.9846L339.391 75.6356Z"
    fill="#071C37"
    />
    <path
    d="M192.448 311.332L236.119 342.377L236.109 342.367L269.582 291.993L233.694 266.412L192.448 311.332Z"
    fill="#071C37"
    />
    <path
    d="M294.568 112.254L347.342 123.949L296.933 100.738L294.568 112.254Z"
    fill="#071C37"
    />
    <path
    d="M302.966 89.6898L297.44 99.3047H297.43L347.581 122.397L302.966 89.6898Z"
    fill="#071C37"
    />
    <path
    d="M295.552 126.458L347.66 125.572V125.562L294.548 113.797L295.552 126.458Z"
    fill="#071C37"
    />
    <path
    d="M271.185 289.41L235.721 264.173L277.533 217.292L302.678 235.248L271.185 289.41Z"
    fill="#071C37"
    />
    <path
    d="M305.451 233.317L332.186 244.843V244.853L346.12 185.551L332.494 179.609L305.451 233.317Z"
    fill="#071C37"
    />
    <path
    d="M279.531 215.023L304.139 232.561L331.152 178.902L318.59 169.904L279.531 215.023Z"
    fill="#071C37"
    />
    <path
    d="M320.538 167.595L332.434 176.085L351.457 130.558L320.538 167.595Z"
    fill="#071C37"
    />
    <path
    d="M352.699 131.514L333.746 176.872H333.736L346.636 182.455L352.699 131.514Z"
    fill="#071C37"
    />
    <path
    d="M361.087 185.292L354.13 132.32V132.31L348.107 182.963L361.087 185.292Z"
    fill="#071C37"
    />
    <path
    d="M309.376 155.8L319.405 166.59L350.354 129.523L309.376 155.8Z"
    fill="#071C37"
    />
    <path
    d="M355.72 132.818L362.628 185.441L362.618 185.451L374.773 184.396L355.72 132.818Z"
    fill="#071C37"
    />
    <path
    d="M300.988 142.284L308.432 154.596L349.31 128.379L300.988 142.284Z"
    fill="#071C37"
    />
    <path
    d="M317.417 168.919L306.832 157.482L306.822 157.492L257.656 191.702L278.378 214.018L317.417 168.919Z"
    fill="#071C37"
    />
    <path
    d="M396.31 171.746L358.752 132.231L388.091 178.982L396.31 171.746Z"
    fill="#071C37"
    />
    <path
    d="M376.273 184.088L386.808 179.778L357.33 132.818L376.273 184.088Z"
    fill="#071C37"
    />
    <path
    d="M295.919 127.971L300.273 140.91L348.356 127.075L295.919 127.971Z"
    fill="#071C37"
    />
    <path
    d="M305.888 156.288L298.046 143.249H298.036L241.356 164.997L256.722 190.498L305.888 156.288Z"
    fill="#071C37"
    />
    <path
    d="M361.276 188.408L347.571 185.919L333.617 245.291L360.57 250.029L361.276 188.408Z"
    fill="#071C37"
    />
    <path
    d="M375.627 187.353L362.787 188.467L362.081 250.109L387.365 247.8L375.627 187.353Z"
    fill="#071C37"
    />
    <path
    d="M402.591 160.857L359.745 131.076L397.204 170.501L402.591 160.857Z"
    fill="#071C37"
    />
    <path
    d="M297.39 141.865L292.829 128.18L292.819 128.17L231.756 136.759L240.7 163.614L297.39 141.865Z"
    fill="#071C37"
    />
    <path
    d="M255.195 193.458L276.36 216.297L234.568 263.158L204.742 230.988L255.195 193.458Z"
    fill="#071C37"
    />
    <path
    d="M272.494 290.141L311.046 306.674H311.056L331.331 247.78L304 235.965L272.494 290.141Z"
    fill="#071C37"
    />
    <path
    d="M388.19 182.475L377.089 186.954H377.098L388.826 247.411L410.701 238.314L388.19 182.475Z"
    fill="#071C37"
    />
    <path
    d="M360.157 129.513L405.245 147.887L403.018 159.324L360.157 129.513Z"
    fill="#071C37"
    />
    <path
    d="M403.605 132.191L399.262 119.49V119.5L359.159 126.149L403.605 132.191Z"
    fill="#071C37"
    />
    <path
    d="M391.162 106.033L358.165 124.766L398.496 118.077L391.162 106.033Z"
    fill="#071C37"
    />
    <path
    d="M380.348 94.2683L357.092 123.631L390.188 104.839L380.348 94.2683Z"
    fill="#071C37"
    />
    <path
    d="M367.577 84.932L355.989 122.586L379.225 93.263L367.577 84.932Z"
    fill="#071C37"
    />
    <path
    d="M325.735 76.3223L351.457 120.237V120.227L337.722 75.3768L325.735 76.3223Z"
    fill="#071C37"
    />
    <path
    d="M313.62 80.7018L349.767 120.366V120.356L324.096 76.5413L313.62 80.7018Z"
    fill="#071C37"
    />
    <path
    d="M348.348 121.081L303.94 88.5352L312.219 81.4284L348.348 121.081Z"
    fill="#071C37"
    />
    <path
    d="M238.59 166.183L254.267 192.27L203.838 229.794L181.784 193.026L238.59 166.183Z"
    fill="#071C37"
    />
    <path
    d="M202.351 232.844L232.521 265.427L191.285 310.337L154.612 270.722L202.351 232.844Z"
    fill="#071C37"
    />
    <path
    d="M189.198 312.556L152.276 272.633V272.623L110.931 307.878L151.749 352.012L189.198 312.556Z"
    fill="#071C37"
    />
    <path
    d="M149.633 354.201L108.695 309.889L108.685 309.879L76.8021 339.799L118.813 385.266L149.633 354.201Z"
    fill="#071C37"
    />
    <path
    d="M199.574 389.874L150.785 355.197V355.187L119.976 386.251L170.076 421.795L199.574 389.874Z"
    fill="#071C37"
    />
    <path
    d="M152.892 353.017L201.542 387.555L234.32 344.845L190.351 313.552L152.892 353.017Z"
    fill="#071C37"
    />
    <path
    d="M237.431 343.103L284.917 363.358H284.927L309.913 309.501L270.894 292.739L237.431 343.103Z"
    fill="#071C37"
    />
    <path
    d="M312.497 307.102L351.367 313.81V313.801L360.332 253.085L332.782 248.198L312.497 307.102Z"
    fill="#071C37"
    />
    <path
    d="M398.158 174.174L389.512 181.779L411.943 237.428L428.948 222.289L398.158 174.174Z"
    fill="#071C37"
    />
    <path
    d="M404.082 133.783L359.905 127.791L405.165 146.235L404.082 133.783Z"
    fill="#071C37"
    />
    <path
    d="M353.623 78.6017L354.717 121.58L366.245 84.1158L353.623 78.6017Z"
    fill="#071C37"
    />
    <path
    d="M247.985 61.0737L301.237 86.873V86.863L309.943 79.3979L265.289 46.3825L247.985 61.0737Z"
    fill="#071C37"
    />
    <path
    d="M300.348 88.1349L294.538 98.2497L235.234 82.1551L246.862 62.1985L300.348 88.1349Z"
    fill="#071C37"
    />
    <path
    d="M291.546 111.826L294.041 99.683L234.638 83.5485L229.579 107.486L291.546 111.826Z"
    fill="#071C37"
    />
    <path
    d="M237.918 164.828L228.814 137.357V137.347L168.387 152.924L181.148 191.652L237.918 164.828Z"
    fill="#071C37"
    />
    <path
    d="M179.123 194.414L201.423 231.665L153.717 269.518L126.664 224.21L179.123 194.414Z"
    fill="#071C37"
    />
    <path
    d="M151.352 271.469L124.12 225.803L80.0222 256.17L110.067 306.674L151.352 271.469Z"
    fill="#071C37"
    />
    <path
    d="M107.751 308.724L77.6071 258.052L45.0878 286.528L75.9473 338.565L107.751 308.724Z"
    fill="#071C37"
    />
    <path
    d="M253.969 413.245L200.926 390.681V390.691L171.517 422.512L226.001 445.564L253.969 413.245Z"
    fill="#071C37"
    />
    <path
    d="M255.839 410.743L202.924 388.272L235.661 345.612L283.466 366.046L255.839 410.743Z"
    fill="#071C37"
    />
    <path
    d="M286.428 363.747L334.293 371.859L350.711 316.787L311.384 309.959L286.428 363.747Z"
    fill="#071C37"
    />
    <path
    d="M361.853 253.204L352.908 313.83L389.333 310.347L387.693 250.845L361.853 253.204Z"
    fill="#071C37"
    />
    <path
    d="M399.262 173.099L429.843 220.895H429.853L440.944 200.81L404.937 162.947L399.262 173.099Z"
    fill="#071C37"
    />
    <path
    d="M266.919 45.7057L311.185 78.4424L322.247 74.1127L288.635 37.1955L266.919 45.7057Z"
    fill="#071C37"
    />
    <path
    d="M178.425 193.076L165.544 153.849H165.534L110.484 175.12L126.048 222.826L178.425 193.076Z"
    fill="#071C37"
    />
    <path
    d="M123.395 224.469L107.721 176.424V176.414L62.242 201.576L79.4259 254.747L123.395 224.469Z"
    fill="#071C37"
    />
    <path
    d="M76.8716 256.698L59.638 203.387H59.6281L26.9299 230.272L44.5114 285.035L76.8716 256.698Z"
    fill="#071C37"
    />
    <path
    d="M310.689 419.982L257.397 411.095L284.937 366.544L333.1 374.745L310.689 419.982Z"
    fill="#071C37"
    />
    <path
    d="M335.873 371.799L380.666 367.34L389.094 313.422L352.232 316.946L335.873 371.799Z"
    fill="#071C37"
    />
    <path
    d="M389.184 250.517L390.814 309.859V309.869L422.26 296.611L411.526 241.3L389.184 250.517Z"
    fill="#071C37"
    />
    <path
    d="M441.292 199.018L445.794 175.438H445.784V175.379L408.018 149.48L405.612 161.464L441.292 199.018Z"
    fill="#071C37"
    />
    <path
    d="M402.402 119.351L407.024 132.957V132.967L442.694 146.066L433.769 120.137L402.402 119.351Z"
    fill="#071C37"
    />
    <path
    d="M393.875 104.709L401.826 117.818V117.828L432.884 118.664L417.887 94.0892L393.875 104.709Z"
    fill="#071C37"
    />
    <path
    d="M382.207 91.8497L392.97 103.445L416.893 92.8947L396.837 71.3755L382.207 91.8497Z"
    fill="#071C37"
    />
    <path
    d="M370.628 52.4594L366.872 81.1199L353.424 75.2175L353.256 75.1877L344.937 41.2067L370.628 52.4594Z"
    fill="#071C37"
    />
    <path
    d="M173.813 76.1133L232.064 81.5479L243.94 61.1633L190.709 47.4575L173.813 76.1133Z"
    fill="#071C37"
    />
    <path
    d="M226.468 107.486L231.636 83.021L173.078 77.5466L165.614 112.005L226.468 107.486Z"
    fill="#071C37"
    />
    <path
    d="M26.8305 228.351L59.161 201.795L55.8911 149.828L23.7297 174.861L23.6303 175.289L26.8305 228.351Z"
    fill="#071C37"
    />
    <path
    d="M73.741 340.754L42.9411 288.817H42.9312L24.0378 313.064L53.5755 362.97L73.741 340.754Z"
    fill="#071C37"
    />
    <path
    d="M116.656 387.356L74.7249 341.919L54.45 364.254L94.7215 407.87L116.656 387.356Z"
    fill="#071C37"
    />
    <path
    d="M167.8 423.865L117.809 388.361L95.8942 408.856L143.928 442.906L167.8 423.865Z"
    fill="#071C37"
    />
    <path
    d="M284.699 454.581L335.137 449.286V449.266L336.022 448.888L360.173 417.923L310.748 423.009L310.549 422.979L284.699 454.581Z"
    fill="#071C37"
    />
    <path
    d="M312.457 419.784L362.121 414.678V414.668L362.31 414.589L379.742 370.425L334.69 374.914L312.457 419.784Z"
    fill="#071C37"
    />
    <path
    d="M382.296 366.643L420.789 350.22V350.21L420.898 350.111L422.458 299.746L390.655 313.164L382.296 366.643Z"
    fill="#071C37"
    />
    <path
    d="M423.611 295.436L447.941 273.559V273.549L447.971 273.499L430.33 225.106L412.957 240.573L423.611 295.436Z"
    fill="#071C37"
    />
    <path
    d="M431.572 223.991L431.542 224.021L448.935 271.728L464.568 243.141L464.638 242.753L442.853 203.547L431.572 223.991Z"
    fill="#071C37"
    />
    <path
    d="M465.085 240.424L471.317 207.309V207.299L471.257 206.592L448.398 177.986L443.757 201.934L443.727 201.984L465.085 240.424Z"
    fill="#071C37"
    />
    <path
    d="M104.113 126.288L104.153 126.119L104.143 126.129L113.525 83.7675L69.9345 99.0559L69.7357 99.3943L59.2107 146.106L104.113 126.288Z"
    fill="#071C37"
    />
    <path
    d="M55.752 147.658L55.8017 147.449L66.1876 101.345L35.7654 124.079L35.01 125.333L24.2564 172.522L55.7719 148.017L55.752 147.658Z"
    fill="#071C37"
    />
    <path
    d="M42.1261 287.424L42.0863 287.315H42.0963L24.654 232.969L6.84393 258.808L6.87375 259.326L23.4812 311.332L42.1261 287.424Z"
    fill="#071C37"
    />
    <path
    d="M364.238 413.772L406.477 395.588V395.578L407.103 395.01L420.103 353.813L381.452 370.236L364.238 413.772Z"
    fill="#071C37"
    />
    <path
    d="M422.458 348.707L451.867 322.062L451.877 322.052L452.195 321.465L448.587 277.053L424.108 299.07L423.999 299.109L422.458 348.707Z"
    fill="#071C37"
    />
    <path
    d="M372.447 49.916L397.264 67.7027L401.15 59.6106L368.114 35.9712L371.95 49.697L372.447 49.916Z"
    fill="#071C37"
    />
    <path
    d="M370.14 48.8958L344.221 37.514L343.456 37.3747L330.307 18.7319L365.719 34.2593L366.136 34.5579L370.14 48.8958Z"
    fill="#071C37"
    />
    <path
    d="M287.621 34.3488L288.177 34.1299L288.197 34.1398L312.656 32.2885L288.138 9.94311L287.332 9.79381L252.945 12.322L287.621 34.3488Z"
    fill="#071C37"
    />
    <path
    d="M170.345 75.9839L187.409 47.0494L138.789 46.2133L138.531 46.4323L117.769 81.2891L170.345 75.9839Z"
    fill="#071C37"
    />
    <path
    d="M113.973 81.7171L114.102 81.5081L134.675 46.9698L94.9699 58.1275L93.986 58.9437L71.1569 96.9955L113.913 82.0057L113.973 81.7171Z"
    fill="#071C37"
    />
    <path
    d="M20.6089 174.821L30.1004 133.176L14.7352 158.697L5.1643 200.481L20.6288 176.125L20.5593 175.03L20.6089 174.821Z"
    fill="#071C37"
    />
    <path
    d="M20.7782 178.649L23.9086 230.56V230.749L24.0576 231.167L6.67496 256.34L3.753 206.652L4.16048 204.89L20.7782 178.649Z"
    fill="#071C37"
    />
    <path
    d="M281.489 457.767L255.916 473.851L301.962 468.964L307.16 466.715L330.576 452.82L282.254 457.896L281.489 457.767Z"
    fill="#071C37"
    />
    <path
    d="M318.172 461.937L345.971 449.893V449.903L359.169 442.189L335.903 452.252L335.674 452.272L334.193 452.431L318.172 461.937Z"
    fill="#071C37"
    />
    <path
    d="M467.003 244.973L473.185 279.033L480.291 241.001L479.914 236.871L473.404 212.485L467.441 244.176L467.003 244.973Z"
    fill="#071C37"
    />
    <path
    d="M479.099 227.923L475.958 193.623H475.968L471.993 181.42L474.358 207.448L474.318 207.657L474.06 209.041L479.099 227.923Z"
    fill="#071C37"
    />
    <path
    d="M446.371 147.867L466.507 164.828L454.212 129.205L453.845 128.598L437.347 121.192L446.331 147.419L446.371 147.867Z"
    fill="#071C37"
    />
    <path
    d="M398.476 68.6283L420.083 91.8596L430.28 90.7548L402.283 60.7253L398.476 68.6283Z"
    fill="#071C37"
    />
    <path
    d="M213.141 3.94121L210.904 4.10047V4.11043L174.559 18.1348L214.9 23.1015L215.377 22.6934L245.66 11.0081L213.141 3.94121Z"
    fill="#071C37"
    />
    <path
    d="M87.3967 60.9841L90.6864 58.5854L91.0839 57.9185L87.3967 60.9841Z"
    fill="#071C37"
    />
    <path
    d="M21.2351 314.278L21.1854 314.119V314.129L5.40281 264.71L2.73926 283.214L2.93802 286.648L17.0807 331.01L21.573 314.846L21.2351 314.278Z"
    fill="#071C37"
    />
    <path
    d="M22.6134 316.609L51.6076 365.598L44.094 378.249L18.1541 334.364L17.9255 333.638L22.6134 316.609Z"
    fill="#071C37"
    />
    <path
    d="M52.6611 366.753L44.9686 379.732H44.9586L47.7514 383.813L79.3861 418.092L80.5589 418.918L92.4057 409.841L52.6611 366.753Z"
    fill="#071C37"
    />
    <path
    d="M127.141 450.789L172.074 469.74L172.084 469.75L174.002 470.059L192.915 466.924L142.477 445.594L142.347 445.504L127.141 450.789Z"
    fill="#071C37"
    />
    <path
    d="M196.593 468.476L195.519 468.029L195.509 468.019L178.663 470.805L219.988 477.544L239.756 475.533L196.593 468.476Z"
    fill="#071C37"
    />
    <path
    d="M285.434 6.89737L287.511 6.74807L306.067 10.2417L304.775 9.81371L278.696 4.91665L285.434 6.89737Z"
    fill="#071C37"
    />
    <path
    d="M167.88 17.9954L169.092 16.9802V16.9901L192.061 8.1714L174.598 11.9438L145.558 23.1314L144.902 23.3802L167.88 17.9954Z"
    fill="#071C37"
    />
    <path
    d="M3.86234 259.893V259.704L1.80503 224.797L0.194972 239.697L2.30196 275.639L4.34932 261.396L3.86234 259.893Z"
    fill="#071C37"
    />
</svg>