<svg width="21" height="33" viewBox="0 0 21 33" fill="none" xmlns="http://www.w3.org/2000/svg">
<g id="PL Logo 1" clip-path="url(#clip0_65_669)">
<path id="Vector (Stroke)" fill-rule="evenodd" clip-rule="evenodd" d="M10.5004 0.499908L15.9966 3.32532V18.7591L21.0004 21.3313V27.1017L10.5004 32.4994L5.00417 29.674V24.5294L0.000366211 21.9571V5.89761L10.5004 0.499908ZM5.98895 24.5294L10.008 22.4633V31.1143L5.98895 29.0482V24.5294ZM10.9928 31.1143L20.0156 26.4759V22.4633L15.0118 25.0356V14.7465L10.9928 16.8125V31.1143ZM15.0118 13.6145V4.45731L5.98895 9.09565V23.3974L10.008 21.3313V16.1868L15.0118 13.6145ZM5.49656 8.21678L14.4032 3.63819L10.5004 1.6319L1.59377 6.21048L5.49656 8.21678ZM0.985143 7.0296V21.3313L5.00417 23.3974V9.09565L0.985143 7.0296ZM19.407 21.6442L15.9966 23.3974V19.891L19.407 21.6442ZM12.2437 8.28519V12.311L8.75703 14.1034V10.0776L12.2437 8.28519ZM9.7418 10.7033V12.4652L11.2589 11.6853V9.92342L9.7418 10.7033Z" fill="white"/>
</g>
<defs>
<clipPath id="clip0_65_669">
<rect width="21" height="32" fill="white" transform="translate(0 0.5)"/>
</clipPath>
</defs>
</svg>
