<svg width="523" height="424" viewBox="0 0 523 424" fill="none" xmlns="http://www.w3.org/2000/svg">
<g clip-path="url(#clip0_690_1516)">
<path d="M500.129 248.845C500.129 111.412 389.358 0 252.715 0C116.071 0 8.02214e-05 111.412 8.02214e-05 248.845V404.16C-0.0148634 409.427 2.05851 414.482 5.76102 418.206C9.46354 421.93 14.4896 424.015 19.7257 424H47.905C53.1411 424.015 58.1671 421.93 61.8696 418.206C65.5722 414.482 67.6455 409.427 67.6305 404.16V275.146C67.6305 264.189 76.4619 255.307 87.356 255.307H127.483C138.377 255.307 147.209 264.189 147.209 275.146V404.16C147.194 409.427 149.267 414.482 152.97 418.206C156.672 421.93 161.698 424.015 166.934 424H195.114C200.35 424.015 205.376 421.93 209.078 418.206C212.781 414.482 214.854 409.427 214.839 404.16V364.991C214.839 325.805 235.625 289.595 269.366 270.002C303.108 250.409 344.679 250.409 378.42 270.002C412.162 289.595 432.947 325.805 432.947 364.991V404.16C432.947 415.117 441.779 424 452.673 424H480.516C491.41 424 500.242 415.117 500.242 404.16L500.129 248.845ZM142.418 195.875C138.727 201.865 133.664 206.879 127.652 210.499C117.177 216.544 104.598 217.683 93.2173 213.617C91.5636 213.102 89.9893 212.358 88.5396 211.406C75.5406 204.228 67.4621 190.497 67.4621 175.582C67.4621 160.666 75.5406 146.936 88.5396 139.757C90.0574 138.782 91.7094 138.038 93.4427 137.546C108.236 132.315 124.701 136.009 135.881 147.069C143.741 154.37 148.197 164.651 148.167 175.412C148.155 182.634 146.166 189.714 142.418 195.875Z" fill="#171717"/>
<path d="M522.129 248.845C522.129 111.412 411.358 0 274.715 0C138.071 0 22.0001 111.412 22.0001 248.845V404.16C21.9851 409.427 24.0585 414.482 27.761 418.206C31.4635 421.93 36.4896 424.015 41.7257 424H69.905C75.1411 424.015 80.1671 421.93 83.8696 418.206C87.5722 414.482 89.6455 409.427 89.6305 404.16V275.146C89.6305 264.189 98.4619 255.307 109.356 255.307H149.483C160.377 255.307 169.209 264.189 169.209 275.146V404.16C169.194 409.427 171.267 414.482 174.97 418.206C178.672 421.93 183.698 424.015 188.934 424H217.114C222.35 424.015 227.376 421.93 231.078 418.206C234.781 414.482 236.854 409.427 236.839 404.16V364.991C236.839 325.805 257.625 289.595 291.366 270.002C325.108 250.409 366.679 250.409 400.42 270.002C434.162 289.595 454.947 325.805 454.947 364.991V404.16C454.947 415.117 463.779 424 474.673 424H502.516C513.41 424 522.242 415.117 522.242 404.16L522.129 248.845ZM164.418 195.875C160.727 201.865 155.664 206.879 149.652 210.499C139.177 216.544 126.598 217.683 115.217 213.617C113.564 213.102 111.989 212.358 110.54 211.406C97.5406 204.228 89.4621 190.497 89.4621 175.582C89.4621 160.666 97.5406 146.936 110.54 139.757C112.057 138.782 113.709 138.038 115.443 137.546C130.236 132.315 146.701 136.009 157.881 147.069C165.741 154.37 170.197 164.651 170.167 175.412C170.155 182.634 168.166 189.714 164.418 195.875Z" fill="#323232"/>
</g>
<defs>
<clipPath id="clip0_690_1516">
<rect width="523" height="424" fill="white"/>
</clipPath>
</defs>
</svg>
