<svg width="48" height="47" viewBox="0 0 48 47" fill="none" xmlns="http://www.w3.org/2000/svg">
<g id="Vector">
<path fill-rule="evenodd" clip-rule="evenodd" d="M24 3.91171C13.268 3.91171 4.56796 12.6117 4.56796 23.3437C4.56796 34.0758 13.268 42.7758 24 42.7758C34.732 42.7758 43.432 34.0758 43.432 23.3437C43.432 12.6117 34.732 3.91171 24 3.91171ZM0.946289 23.3437C0.946289 10.6115 11.2678 0.290039 24 0.290039C36.7322 0.290039 47.0537 10.6115 47.0537 23.3437C47.0537 36.0759 36.7322 46.3974 24 46.3974C11.2678 46.3974 0.946289 36.0759 0.946289 23.3437Z" fill="#222326"/>
<path d="M27.1507 32.2996C27.0476 32.0933 26.9599 31.856 26.8878 31.5878C26.8155 31.3196 26.7536 31.0359 26.702 30.7368C26.4648 30.9946 26.1914 31.2371 25.882 31.464C25.5724 31.691 25.2269 31.8922 24.8451 32.0675C24.4738 32.2325 24.0611 32.3616 23.6073 32.4543C23.1534 32.5574 22.6634 32.6092 22.1373 32.6092C21.2811 32.6092 20.4919 32.4853 19.7699 32.2377C19.058 31.9901 18.4442 31.6446 17.9285 31.201C17.4126 30.7575 17.0103 30.2313 16.7214 29.6227C16.4326 29.0037 16.2883 28.3333 16.2883 27.6111C16.2883 25.8471 16.9432 24.4855 18.2534 23.526C19.5739 22.5564 21.539 22.0715 24.1489 22.0715H26.5473V21.0812C26.5473 20.2765 26.2843 19.6421 25.7581 19.178C25.2321 18.7034 24.4738 18.4661 23.4835 18.4661C22.6067 18.4661 21.9671 18.657 21.5648 19.0386C21.1625 19.41 20.9613 19.9104 20.9613 20.5396H16.6596C16.6596 19.8278 16.8143 19.1522 17.1237 18.5126C17.4436 17.873 17.9027 17.3108 18.501 16.8259C19.1096 16.341 19.8472 15.9594 20.7137 15.6809C21.5906 15.392 22.5912 15.2476 23.7156 15.2476C24.7265 15.2476 25.6652 15.3714 26.5318 15.619C27.4087 15.8665 28.1668 16.2328 28.8064 16.7175C29.446 17.2024 29.9463 17.8162 30.3074 18.5589C30.6685 19.2914 30.849 20.1425 30.849 21.1121V28.292C30.849 29.1894 30.9057 29.9322 31.0192 30.5202C31.1327 31.1082 31.2977 31.6136 31.5144 32.0365V32.2996H27.1507ZM23.0502 29.2823C23.4835 29.2823 23.8858 29.2307 24.2571 29.1276C24.6286 29.0243 24.9638 28.8903 25.2629 28.7251C25.5621 28.5601 25.82 28.3744 26.0367 28.1681C26.2532 27.9515 26.4235 27.7348 26.5473 27.5182V24.6402H24.35C23.6795 24.6402 23.107 24.7072 22.6324 24.8412C22.1579 24.9651 21.7711 25.1456 21.4719 25.3829C21.1728 25.6098 20.951 25.8883 20.8065 26.2185C20.6621 26.5382 20.59 26.8889 20.59 27.2707C20.59 27.8484 20.791 28.328 21.1933 28.7098C21.6061 29.0914 22.2249 29.2823 23.0502 29.2823Z" fill="#222326"/>
</g>
</svg>
