<svg width="256" height="65" viewBox="0 0 256 65" fill="none" xmlns="http://www.w3.org/2000/svg">
<g id="Logo">
<g id="Wordmark">
<path id="Vector" d="M91.4017 30.0535C92.8909 30.648 94.4883 30.9453 96.1937 30.9453C97.953 30.9453 99.6423 30.5574 101.262 29.7816C102.881 29.0058 104.198 27.9799 105.212 26.704L102.865 24.6159C102.099 25.53 101.152 26.2979 100.024 26.9194C98.8959 27.541 97.6195 27.8519 96.1949 27.8522C94.5538 27.8522 93.0723 27.4934 91.7505 26.7759C90.4287 26.0584 89.3844 25.0382 88.6177 23.7153C87.8513 22.3927 87.4681 20.8864 87.4681 19.1964C87.4681 16.7412 88.2803 14.6847 89.9047 13.0268C91.5291 11.3689 93.5292 10.54 95.9049 10.5403C97.1143 10.5404 98.3105 10.7873 99.418 11.2655C100.552 11.7494 101.469 12.368 102.17 13.1211L104.389 10.969C103.374 9.87504 102.119 9.01428 100.624 8.38666C99.1324 7.7605 97.5266 7.44055 95.9049 7.44637C93.703 7.44637 91.7029 7.96391 89.9047 8.999C88.1321 10.0104 86.6738 11.4793 85.6872 13.2472C84.6721 15.0432 84.1648 17.025 84.1653 19.1926C84.1653 20.8611 84.4702 22.4232 85.0799 23.8789C85.6897 25.3346 86.523 26.578 87.58 27.609C88.6382 28.6434 89.9121 29.4582 91.4017 30.0535Z" fill="white"/>
<path id="Vector_2" d="M120.355 17.2448C118.828 15.7202 116.909 14.9578 114.599 14.9575C112.289 14.9573 110.368 15.7197 108.836 17.2448C107.304 18.7702 106.538 20.6753 106.538 22.96C106.538 25.2448 107.304 27.1471 108.837 28.6669C110.369 30.186 112.289 30.9455 114.599 30.9455C116.909 30.9455 118.828 30.1857 120.355 28.6662C121.882 27.1463 122.646 25.244 122.647 22.9593C122.647 20.6745 121.883 18.7697 120.355 17.2448ZM118.121 26.5546C117.198 27.5268 116.024 28.0129 114.599 28.0129C113.175 28.0129 112 27.5268 111.077 26.5546C110.153 25.5821 109.692 24.3839 109.692 22.96C109.692 21.5361 110.153 20.3353 111.077 19.3575C112 18.38 113.173 17.8911 114.598 17.8909C116.022 17.8906 117.197 18.3795 118.121 19.3575C119.044 20.3353 119.506 21.5363 119.506 22.9604C119.506 24.3845 119.044 25.5826 118.121 26.5546Z" fill="white"/>
<path id="Vector_3" d="M149.734 17.5398C149.078 16.734 148.245 16.0853 147.297 15.6426C146.33 15.1854 145.27 14.951 144.197 14.9571C142.902 14.9571 141.793 15.1803 140.87 15.6267C139.947 16.073 139.075 16.7001 138.254 17.508C137.59 16.7253 136.765 16.0896 135.834 15.6426C134.889 15.1859 133.861 14.9574 132.75 14.9571C131.811 14.9527 130.882 15.1513 130.03 15.5388C129.177 15.9274 128.556 16.3339 128.168 16.7586V15.2764H125.124V30.6274H128.281V20.0744C128.799 19.4685 129.436 18.9532 130.192 18.5286C130.94 18.1049 131.79 17.8847 132.653 17.8905C133.234 17.8878 133.809 18.0104 134.337 18.2495C134.848 18.4753 135.301 18.81 135.665 19.2295C136.269 19.9309 136.571 20.9565 136.571 22.3064V30.6274H139.713V22.7847C139.713 21.7749 139.626 20.8714 139.453 20.0744C140.867 18.6187 142.448 17.8907 144.197 17.8905C145.374 17.8905 146.345 18.3368 147.111 19.2295C147.705 19.9112 148.002 20.9368 148.002 22.3064V30.6274H151.159V22.7847C151.159 21.5199 151.043 20.481 150.811 19.6681C150.579 18.8551 150.22 18.1457 149.734 17.5398Z" fill="white"/>
<path id="Vector_4" d="M179.117 17.5315C178.461 16.726 177.628 16.0774 176.681 15.6347C175.713 15.1772 174.653 14.9427 173.58 14.9488C172.284 14.9488 171.175 15.172 170.253 15.6184C169.33 16.0647 168.458 16.692 167.637 17.5001C166.973 16.7174 166.148 16.0817 165.217 15.6347C164.272 15.1777 163.244 14.9491 162.132 14.9488C161.194 14.9451 160.266 15.1444 159.415 15.5324C158.562 15.9209 157.941 16.3274 157.553 16.7518V15.2673H154.509V30.6191H157.666V20.0661C158.205 19.4435 158.853 18.9201 159.578 18.5203C160.327 18.0967 161.176 17.8765 162.04 17.8822C162.621 17.8796 163.195 18.002 163.723 18.2408C164.234 18.4667 164.688 18.8015 165.051 19.2212C165.656 19.9226 165.958 20.9482 165.957 22.2981V30.6191H169.099V22.7764C169.099 21.7666 169.012 20.8631 168.839 20.0661C170.253 18.6104 171.835 17.8824 173.583 17.8822C174.76 17.8822 175.731 18.3285 176.497 19.2212C177.091 19.9029 177.388 20.9285 177.388 22.2981V30.6191H180.546V22.7764C180.546 21.5116 180.429 20.4727 180.197 19.6598C179.965 18.8468 179.605 18.1374 179.117 17.5315Z" fill="white"/>
<path id="Vector_5" d="M195.174 25.821C194.635 26.4439 193.989 26.9676 193.264 27.3675C192.515 27.7908 191.665 28.0107 190.802 28.0049C190.218 28.0072 189.641 27.8848 189.11 27.6462C188.596 27.422 188.14 27.0871 187.775 26.6662C187.183 25.9863 186.887 24.966 186.887 23.6052V15.2676H183.746V23.1103C183.746 24.3751 183.862 25.4166 184.094 26.2349C184.326 27.0531 184.685 27.7652 185.171 28.3711C185.826 29.1758 186.659 29.822 187.607 30.26C188.576 30.7121 189.636 30.9437 190.708 30.9375C191.669 30.9375 192.556 30.7567 193.371 30.3952C194.186 30.0336 194.82 29.6407 195.271 29.2163V30.6175H198.332V15.2676H195.174V25.821Z" fill="white"/>
<path id="Vector_6" d="M213.24 15.6744C212.257 15.192 211.173 14.9435 210.075 14.9488C209.06 14.9488 208.156 15.1269 207.363 15.4831C206.569 15.8394 205.914 16.2617 205.395 16.7502V15.2673H202.352V30.6191H205.509V20.0661C206.717 18.6104 208.207 17.8824 209.977 17.8822C210.605 17.8802 211.226 18.0193 211.791 18.2889C212.339 18.5415 212.821 18.9152 213.199 19.381C213.815 20.1248 214.122 21.315 214.122 22.9517V30.6191H217.28V23.1108C217.28 20.7629 216.767 18.9451 215.741 17.6576C215.066 16.8229 214.212 16.1457 213.24 15.6744Z" fill="white"/>
<path id="Vector_7" d="M223.542 15.2686H220.385V30.6196H223.542V15.2686Z" fill="white"/>
<path id="Vector_8" d="M221.939 7.76025C221.356 7.76025 220.868 7.95945 220.474 8.35783C220.08 8.75621 219.883 9.24245 219.883 9.81655C219.883 10.3901 220.08 10.871 220.474 11.259C220.868 11.647 221.356 11.841 221.939 11.841C222.522 11.841 223.016 11.647 223.421 11.259C223.826 10.871 224.028 10.3901 224.028 9.81655C224.028 9.24271 223.825 8.75647 223.421 8.35783C223.016 7.95919 222.522 7.76 221.939 7.76025Z" fill="white"/>
<path id="Vector_9" d="M232.978 11.0283H229.821V15.2678H225.838V18.0572H229.821V25.0721C229.821 26.879 230.242 28.2392 231.084 29.1529C232.142 30.3432 233.61 30.9384 235.488 30.9384C236.459 30.9384 237.28 30.8321 237.949 30.6196L237.318 27.8142C236.854 27.9404 236.282 28.0035 235.602 28.0035C235.176 28.0048 234.754 27.932 234.355 27.7885C233.955 27.6451 233.648 27.4457 233.432 27.1905C233.13 26.8507 232.979 26.1972 232.979 25.23V18.058H237.949V15.2678H232.978V11.0283Z" fill="white"/>
<path id="Vector_10" d="M252.339 15.2686L247.854 25.391L242.981 15.2686H239.597L246.267 29.0257L242.058 38.4623H245.409L255.658 15.2686H252.339Z" fill="white"/>
<path id="Vector_11" d="M89.2967 34.9736H85.9778V57.8326H99.5778V54.7243H89.2967V34.9736Z" fill="white"/>
<path id="Vector_12" d="M113.469 43.9009C112.11 42.7426 110.48 42.1633 108.579 42.1631C107.154 42.1631 105.886 42.4872 104.774 43.1356C103.565 43.8369 102.594 44.8089 101.86 46.0515C101.126 47.2941 100.759 48.665 100.759 50.1641C100.759 51.6627 101.12 53.026 101.844 54.254C102.567 55.4819 103.533 56.4463 104.742 57.1472C105.896 57.8167 107.202 58.1516 108.66 58.1518C110.571 58.1518 112.173 57.5779 113.468 56.4299V57.8311H116.511V42.4819H113.468L113.469 43.9009ZM113.353 53.0349C112.844 53.7092 112.185 54.2599 111.427 54.6451C110.671 55.0276 109.889 55.2189 109.08 55.2189C107.601 55.2189 106.371 54.7247 105.388 53.7363C104.405 52.7479 103.914 51.5577 103.915 50.1656C103.915 48.7841 104.381 47.5939 105.315 46.5949C106.249 45.5959 107.449 45.0964 108.917 45.0964C109.794 45.0892 110.658 45.2945 111.435 45.6944C112.186 46.076 112.842 46.6178 113.354 47.2803L113.353 53.0349Z" fill="white"/>
<path id="Vector_13" d="M132.27 43.1356C131.158 42.4876 129.89 42.1634 128.465 42.1632C126.619 42.1632 125.026 42.7158 123.689 43.8211V34.6567H120.531V57.8327H123.577V56.4315C124.872 57.5792 126.475 58.1532 128.385 58.1534C129.842 58.1534 131.148 57.8185 132.303 57.1487C133.512 56.4474 134.477 55.483 135.201 54.2555C135.924 53.0281 136.286 51.6648 136.286 50.1657C136.286 48.6671 135.919 47.2962 135.185 46.0531C134.451 44.81 133.479 43.8375 132.27 43.1356ZM131.654 53.7364C130.672 54.7247 129.441 55.2189 127.962 55.2189C127.144 55.2167 126.339 55.0199 125.615 54.6452C124.857 54.2602 124.198 53.7094 123.689 53.035V47.2789C124.2 46.6163 124.856 46.0744 125.607 45.6929C126.384 45.2931 127.249 45.0877 128.125 45.095C129.593 45.095 130.793 45.5945 131.727 46.5935C132.661 47.5925 133.128 48.7827 133.128 50.1642C133.129 51.5577 132.637 52.7485 131.654 53.7364Z" fill="white"/>
<path id="Vector_14" d="M148.783 50.5557C148.433 50.2316 147.982 49.9314 147.431 49.6552C146.95 49.4075 146.449 49.1969 145.934 49.0254C145.486 48.8823 144.971 48.7361 144.388 48.5869C143.999 48.4915 143.699 48.4118 143.489 48.348C143.279 48.2841 143.033 48.1991 142.752 48.0931C142.47 47.9868 142.26 47.8778 142.121 47.7659C141.976 47.6498 141.853 47.5098 141.757 47.352C141.654 47.1865 141.601 46.9958 141.603 46.8018C141.603 46.2173 141.875 45.7503 142.421 45.4006C142.966 45.051 143.632 44.8757 144.421 44.875C145.574 44.875 146.692 45.2789 147.772 46.0868L149.391 43.8552C147.966 42.7287 146.245 42.1653 144.226 42.1651C143.519 42.1629 142.815 42.2623 142.137 42.4601C141.483 42.6502 140.862 42.9408 140.3 43.3212C139.744 43.6984 139.299 44.2004 138.964 44.8273C138.63 45.4541 138.462 46.1654 138.462 46.9612C138.462 48.81 139.654 50.1277 142.039 50.9144C142.385 51.0318 142.838 51.1594 143.399 51.2972C143.96 51.4351 144.413 51.5546 144.759 51.6558C145.125 51.7641 145.482 51.8972 145.828 52.0542C146.194 52.2193 146.467 52.4213 146.645 52.6601C146.824 52.899 146.913 53.1887 146.913 53.5292C146.913 54.1031 146.64 54.5653 146.095 54.916C145.55 55.2667 144.916 55.4419 144.193 55.4416C142.584 55.4416 141.046 54.8784 139.577 53.7519L137.958 56.0316C139.728 57.4454 141.827 58.1523 144.257 58.1523C145.843 58.1523 147.206 57.7218 148.345 56.861C149.484 56.0001 150.053 54.8682 150.053 53.4652C150.059 52.8892 149.932 52.3192 149.681 51.799C149.433 51.2943 149.133 50.8799 148.783 50.5557Z" fill="white"/>
</g>
<g id="Logomark">
<path id="Vector_15" d="M3.13199 32.6874C3.13199 18.8103 14.5989 7.5211 28.6928 7.5211H52.9058C47.3799 3.24567 40.4174 0.687988 32.8433 0.687988H32.8317C14.8916 0.694426 0.348824 15.0127 0.342285 32.6768C0.342285 32.6806 0.342285 32.6844 0.342285 32.6882C0.342285 49.7581 13.9196 63.703 31.0198 64.6353C31.624 64.6679 32.2313 64.688 32.844 64.688C40.4174 64.688 47.3799 62.1307 52.9054 57.8549H28.6928C14.5989 57.8549 3.13199 46.5649 3.13199 32.6874Z" fill="#6F3EFC"/>
<path id="Vector_16" d="M14.1785 32.6874C14.1785 24.8072 20.6895 18.3967 28.6924 18.3967H61.9242C60.6702 15.9305 59.0982 13.6339 57.2471 11.564H32.8433C21.0137 11.564 11.3888 21.04 11.3888 32.6874C11.3888 44.3348 21.0137 53.8123 32.8433 53.8123H57.2463C59.0972 51.742 60.669 49.4452 61.9226 46.9788H28.6909C20.6891 46.9788 14.1785 40.5683 14.1785 32.6874Z" fill="#6F3EFC"/>
<path id="Vector_17" d="M25.2277 32.6873C25.2286 31.782 25.5943 30.914 26.2445 30.2738C26.8947 29.6336 27.7763 29.2736 28.6959 29.2727H65.1585C64.9068 26.9468 64.3951 24.6553 63.6327 22.4399H32.8433C27.1047 22.4399 22.4353 27.0373 22.4353 32.6873C22.4353 38.3374 27.1047 42.9359 32.8433 42.9359H63.6327C64.3956 40.7203 64.9075 38.4286 65.1593 36.1024H28.6966C27.7769 36.1017 26.895 35.7417 26.2447 35.1014C25.5943 34.4611 25.2285 33.5929 25.2277 32.6873Z" fill="#6F3EFC"/>
</g>
</g>
</svg>
