<svg width="27" height="33" viewBox="0 0 27 33" fill="none" xmlns="http://www.w3.org/2000/svg">
<g id="Logomark">
<path id="Vector" d="M1.37726 16.2604C1.37726 9.40929 7.03841 3.83588 13.9965 3.83588H25.9504C23.2222 1.72512 19.7849 0.462402 16.0456 0.462402H16.0399C7.18292 0.465581 0.00322811 7.53447 0 16.2551C0 16.257 0 16.2589 0 16.2607C0 24.6881 6.70307 31.5726 15.1453 32.0329C15.4436 32.049 15.7435 32.0589 16.046 32.0589C19.7849 32.0589 23.2222 30.7964 25.9502 28.6854H13.9965C7.03841 28.6854 1.37726 23.1116 1.37726 16.2604Z" fill="white"/>
<path id="Vector_2" d="M6.83042 16.2601C6.83042 12.3697 10.0449 9.20483 13.9959 9.20483H30.4022C29.7832 7.98728 29.0071 6.85348 28.0932 5.83154H16.0451C10.2049 5.83154 5.45316 10.5098 5.45316 16.2601C5.45316 22.0103 10.2049 26.6893 16.0451 26.6893H28.0928C29.0066 25.6673 29.7825 24.5333 30.4015 23.3157H13.9951C10.0447 23.3157 6.83042 20.1509 6.83042 16.2601Z" fill="white"/>
<path id="Vector_3" d="M12.286 16.2607C12.2864 15.8138 12.467 15.3853 12.788 15.0692C13.109 14.7531 13.5442 14.5754 13.9982 14.5749H31.9996C31.8753 13.4267 31.6227 12.2954 31.2463 11.2017H16.0458C13.2126 11.2017 10.9074 13.4713 10.9074 16.2607C10.9074 19.0502 13.2126 21.3204 16.0458 21.3204H31.2463C31.623 20.2266 31.8757 19.0952 32 17.9467H13.9986C13.5445 17.9464 13.1091 17.7687 12.788 17.4525C12.4669 17.1364 12.2864 16.7078 12.286 16.2607Z" fill="white"/>
</g>
</svg>
