<svg xmlns="http://www.w3.org/2000/svg" width="20" height="20" viewBox="0 0 20 20" fill="none">
<g clip-path="url(#clip0_371_166)">
<path d="M13.3334 13.3334V15.6667C13.3334 16.6002 13.3334 17.0669 13.1518 17.4234C12.992 17.737 12.737 17.992 12.4234 18.1518C12.0669 18.3334 11.6002 18.3334 10.6667 18.3334H4.33341C3.39999 18.3334 2.93328 18.3334 2.57676 18.1518C2.26316 17.992 2.00819 17.737 1.8484 17.4234C1.66675 17.0669 1.66675 16.6002 1.66675 15.6667V9.33341C1.66675 8.39999 1.66675 7.93328 1.8484 7.57676C2.00819 7.26316 2.26316 7.00819 2.57676 6.8484C2.93328 6.66675 3.39999 6.66675 4.33342 6.66675H6.66675M9.33341 13.3334H15.6667C16.6002 13.3334 17.0669 13.3334 17.4234 13.1518C17.737 12.992 17.992 12.737 18.1518 12.4234C18.3334 12.0669 18.3334 11.6002 18.3334 10.6667V4.33341C18.3334 3.39999 18.3334 2.93328 18.1518 2.57676C17.992 2.26316 17.737 2.00819 17.4234 1.8484C17.0669 1.66675 16.6002 1.66675 15.6667 1.66675H9.33341C8.39999 1.66675 7.93328 1.66675 7.57676 1.8484C7.26316 2.00819 7.00819 2.26316 6.8484 2.57676C6.66675 2.93328 6.66675 3.39999 6.66675 4.33341V10.6667C6.66675 11.6002 6.66675 12.0669 6.8484 12.4234C7.00819 12.737 7.26316 12.992 7.57676 13.1518C7.93328 13.3334 8.39999 13.3334 9.33341 13.3334Z" stroke="black" stroke-width="2" stroke-linecap="round" stroke-linejoin="round"/>
</g>
<defs>
<clipPath id="clip0_371_166">
<rect width="20" height="20" fill="white"/>
</clipPath>
</defs>
</svg>