<svg width="21" height="21" viewBox="0 0 21 21" fill="none" xmlns="http://www.w3.org/2000/svg">
<g id="cloud-check">
<path id="Vector" d="M12.575 12.513L9.83328 15.2547L8.75828 14.1797C8.68082 14.1016 8.58865 14.0396 8.4871 13.9973C8.38555 13.955 8.27663 13.9332 8.16662 13.9332C8.05661 13.9332 7.94769 13.955 7.84614 13.9973C7.74459 14.0396 7.65242 14.1016 7.57495 14.1797C7.41974 14.3358 7.33262 14.547 7.33262 14.7672C7.33262 14.9873 7.41974 15.1986 7.57495 15.3547L9.24162 17.0214C9.31909 17.0995 9.41125 17.1615 9.5128 17.2038C9.61435 17.2461 9.72327 17.2679 9.83328 17.2679C9.94329 17.2679 10.0522 17.2461 10.1538 17.2038C10.2553 17.1615 10.3475 17.0995 10.425 17.0214L13.7583 13.688C13.9135 13.5319 14.0006 13.3207 14.0006 13.1005C14.0006 12.8804 13.9135 12.6692 13.7583 12.513C13.6808 12.4349 13.5886 12.3729 13.4871 12.3306C13.3855 12.2883 13.2766 12.2665 13.1666 12.2665C13.0566 12.2665 12.9477 12.2883 12.8461 12.3306C12.7446 12.3729 12.6524 12.4349 12.575 12.513ZM16.0166 7.62136C15.5069 6.4512 14.6274 5.48052 13.5131 4.85815C12.3987 4.23579 11.111 3.99608 9.84735 4.17579C8.5837 4.3555 7.41387 4.94471 6.51722 5.85307C5.62056 6.76144 5.04659 7.93882 4.88328 9.20469C4.18828 9.37713 3.56728 9.7688 3.11223 10.3217C2.65719 10.8746 2.39229 11.5594 2.35677 12.2746C2.32124 12.9898 2.51697 13.6974 2.91498 14.2927C3.31299 14.8879 3.89212 15.3392 4.56662 15.5797C4.67306 15.6355 4.79033 15.6677 4.91037 15.674C5.03042 15.6802 5.1504 15.6605 5.26208 15.616C5.37376 15.5715 5.4745 15.5034 5.55739 15.4164C5.64027 15.3293 5.70334 15.2253 5.74226 15.1116C5.78119 14.9979 5.79505 14.8771 5.78289 14.7575C5.77073 14.6379 5.73284 14.5224 5.67182 14.4188C5.61081 14.3152 5.5281 14.2261 5.42939 14.1575C5.33068 14.0889 5.2183 14.0424 5.09995 14.0214C4.77515 13.9039 4.49484 13.6885 4.29778 13.4049C4.10072 13.1212 3.99665 12.7834 3.99995 12.438C3.99995 11.996 4.17555 11.5721 4.48811 11.2595C4.80067 10.947 5.22459 10.7714 5.66662 10.7714C5.88763 10.7714 6.09959 10.6836 6.25587 10.5273C6.41215 10.371 6.49995 10.159 6.49995 9.93802C6.50403 8.95313 6.85686 8.00152 7.49584 7.25204C8.13483 6.50255 9.01865 6.00364 9.9905 5.84383C10.9623 5.68402 11.9594 5.87364 12.8047 6.37904C13.6501 6.88445 14.289 7.67297 14.6083 8.60469C14.6572 8.74634 14.7433 8.87218 14.8577 8.96897C14.9721 9.06577 15.1105 9.12992 15.2583 9.15469C15.8133 9.25958 16.3165 9.54936 16.6858 9.9768C17.0551 10.4042 17.2688 10.9442 17.292 11.5086C17.3151 12.073 17.1465 12.6286 16.8135 13.0849C16.4806 13.5412 16.0029 13.8713 15.4583 14.0214C15.2373 14.049 15.0363 14.1633 14.8995 14.3391C14.7628 14.5149 14.7015 14.7378 14.7291 14.9589C14.7567 15.1799 14.871 15.3809 15.0469 15.5176C15.2227 15.6543 15.4456 15.7157 15.6666 15.688H15.875C16.7519 15.4563 17.5294 14.9447 18.0891 14.2309C18.6489 13.5171 18.9605 12.6402 18.9765 11.7332C18.9925 10.8263 18.7121 9.93889 18.1779 9.20579C17.6437 8.47269 16.8849 7.93394 16.0166 7.67136V7.62136Z" fill="#419AC6"/>
</g>
</svg>
