<svg xmlns="http://www.w3.org/2000/svg" width="20" height="20" viewBox="0 0 20 20" fill="none">
<path d="M18.3333 14.5833L17.7568 6.22479C17.6663 4.91253 17.6211 4.2564 17.3367 3.75902C17.0863 3.32111 16.7093 2.9692 16.2552 2.74952C15.7394 2.5 15.0817 2.5 13.7663 2.5H6.2336C4.91822 2.5 4.26053 2.5 3.74476 2.74952C3.29066 2.9692 2.91364 3.32111 2.66324 3.75902C2.37883 4.2564 2.33358 4.91253 2.24308 6.22479L1.66663 14.5833M18.3333 14.5833C18.3333 16.1942 17.0275 17.5 15.4166 17.5H4.58329C2.97246 17.5 1.66663 16.1942 1.66663 14.5833M18.3333 14.5833C18.3333 12.9725 17.0275 11.6667 15.4166 11.6667H4.58329C2.97246 11.6667 1.66663 12.9725 1.66663 14.5833M4.99996 14.5833H5.00829M9.99996 14.5833H15" stroke="#101828" stroke-width="1.66667" stroke-linecap="round" stroke-linejoin="round"/>
</svg>