<svg xmlns="http://www.w3.org/2000/svg" width="21" height="20" viewBox="0 0 21 20" fill="none">
<path d="M11.3332 5.83333L10.4036 3.9741C10.136 3.439 10.0022 3.17144 9.80265 2.97597C9.62615 2.80311 9.41344 2.67164 9.1799 2.59109C8.91581 2.5 8.61668 2.5 8.01841 2.5H4.83317C3.89975 2.5 3.43304 2.5 3.07652 2.68166C2.76292 2.84144 2.50795 3.09641 2.34816 3.41002C2.1665 3.76654 2.1665 4.23325 2.1665 5.16667V5.83333M2.1665 5.83333H14.8332C16.2333 5.83333 16.9334 5.83333 17.4681 6.10582C17.9386 6.3455 18.321 6.72795 18.5607 7.19836C18.8332 7.73314 18.8332 8.4332 18.8332 9.83333V13.5C18.8332 14.9001 18.8332 15.6002 18.5607 16.135C18.321 16.6054 17.9386 16.9878 17.4681 17.2275C16.9334 17.5 16.2333 17.5 14.8332 17.5H6.1665C4.76637 17.5 4.06631 17.5 3.53153 17.2275C3.06112 16.9878 2.67867 16.6054 2.43899 16.135C2.1665 15.6002 2.1665 14.9001 2.1665 13.5V5.83333Z" stroke="#419AC6" stroke-width="1.5" stroke-linecap="round" stroke-linejoin="round"/>
</svg>