<svg width="20" height="21" viewBox="0 0 20 21" fill="none" xmlns="http://www.w3.org/2000/svg">
<g id="folder-code">
<path id="Icon" d="M10.8333 6.52132L9.90367 4.66209C9.63613 4.12699 9.50235 3.85943 9.30277 3.66396C9.12628 3.4911 8.91356 3.35963 8.68002 3.27908C8.41593 3.18799 8.1168 3.18799 7.51854 3.18799H4.33329C3.39987 3.18799 2.93316 3.18799 2.57664 3.36964C2.26304 3.52943 2.00807 3.7844 1.84828 4.098C1.66663 4.45452 1.66663 4.92123 1.66663 5.85465V6.52132M1.66663 6.52132H14.3333C15.7334 6.52132 16.4335 6.52132 16.9683 6.79381C17.4387 7.03349 17.8211 7.41594 18.0608 7.88635C18.3333 8.42112 18.3333 9.12119 18.3333 10.5213V14.188C18.3333 15.5881 18.3333 16.2882 18.0608 16.823C17.8211 17.2934 17.4387 17.6758 16.9683 17.9155C16.4335 18.188 15.7334 18.188 14.3333 18.188H5.66663C4.26649 18.188 3.56643 18.188 3.03165 17.9155C2.56124 17.6758 2.17879 17.2934 1.93911 16.823C1.66663 16.2882 1.66663 15.5881 1.66663 14.188V6.52132ZM11.6666 14.438L13.75 12.3547L11.6666 10.2713M8.33329 10.2713L6.24996 12.3547L8.33329 14.438" stroke="#419AC6" stroke-width="1.66667" stroke-linecap="round" stroke-linejoin="round"/>
</g>
</svg>
