<svg width="24" height="24" viewBox="0 0 24 24" fill="none" xmlns="http://www.w3.org/2000/svg">
<g id="Icon / git-pull-request">
<path id="icon" d="M19.01 15.163V7.997C19.005 6.391 17.933 4 15 4V2L11 5L15 8V6C16.829 6 17.001 7.539 17.01 8V15.163C15.57 15.597 14.51 16.92 14.51 18.5C14.51 20.43 16.08 22 18.01 22C19.94 22 21.51 20.43 21.51 18.5C21.51 16.92 20.45 15.597 19.01 15.163ZM18.01 20C17.183 20 16.51 19.327 16.51 18.5C16.51 17.673 17.183 17 18.01 17C18.837 17 19.51 17.673 19.51 18.5C19.51 19.327 18.837 20 18.01 20ZM9.5 5.5C9.5 3.57 7.93 2 6 2C4.07 2 2.5 3.57 2.5 5.5C2.5 7.08 3.56 8.403 5 8.837V15.163C3.56 15.597 2.5 16.92 2.5 18.5C2.5 20.43 4.07 22 6 22C7.93 22 9.5 20.43 9.5 18.5C9.5 16.92 8.44 15.597 7 15.163V8.837C8.44 8.403 9.5 7.08 9.5 5.5ZM4.5 5.5C4.5 4.673 5.173 4 6 4C6.827 4 7.5 4.673 7.5 5.5C7.5 6.327 6.827 7 6 7C5.173 7 4.5 6.327 4.5 5.5ZM7.5 18.5C7.5 19.327 6.827 20 6 20C5.173 20 4.5 19.327 4.5 18.5C4.5 17.673 5.173 17 6 17C6.827 17 7.5 17.673 7.5 18.5Z" fill="#419AC6"/>
</g>
</svg>
