<svg width="21" height="21" viewBox="0 0 21 21" fill="none" xmlns="http://www.w3.org/2000/svg">
<g id="graph-bar">
<path id="Vector" d="M5.33335 11.5215H2.00002C1.77901 11.5215 1.56704 11.6093 1.41076 11.7656C1.25448 11.9218 1.16669 12.1338 1.16669 12.3548V19.0215C1.16669 19.2425 1.25448 19.4545 1.41076 19.6107C1.56704 19.767 1.77901 19.8548 2.00002 19.8548H5.33335C5.55437 19.8548 5.76633 19.767 5.92261 19.6107C6.07889 19.4545 6.16669 19.2425 6.16669 19.0215V12.3548C6.16669 12.1338 6.07889 11.9218 5.92261 11.7656C5.76633 11.6093 5.55437 11.5215 5.33335 11.5215ZM4.50002 18.1882H2.83335V13.1882H4.50002V18.1882ZM18.6667 8.18815H15.3334C15.1123 8.18815 14.9004 8.27595 14.7441 8.43223C14.5878 8.58851 14.5 8.80047 14.5 9.02148V19.0215C14.5 19.2425 14.5878 19.4545 14.7441 19.6107C14.9004 19.767 15.1123 19.8548 15.3334 19.8548H18.6667C18.8877 19.8548 19.0997 19.767 19.2559 19.6107C19.4122 19.4545 19.5 19.2425 19.5 19.0215V9.02148C19.5 8.80047 19.4122 8.58851 19.2559 8.43223C19.0997 8.27595 18.8877 8.18815 18.6667 8.18815ZM17.8334 18.1882H16.1667V9.85482H17.8334V18.1882ZM12 1.52148H8.66669C8.44567 1.52148 8.23371 1.60928 8.07743 1.76556C7.92115 1.92184 7.83335 2.1338 7.83335 2.35482V19.0215C7.83335 19.2425 7.92115 19.4545 8.07743 19.6107C8.23371 19.767 8.44567 19.8548 8.66669 19.8548H12C12.221 19.8548 12.433 19.767 12.5893 19.6107C12.7456 19.4545 12.8334 19.2425 12.8334 19.0215V2.35482C12.8334 2.1338 12.7456 1.92184 12.5893 1.76556C12.433 1.60928 12.221 1.52148 12 1.52148ZM11.1667 18.1882H9.50002V3.18815H11.1667V18.1882Z" fill="#419AC6"/>
</g>
</svg>
