<svg width="22" height="39" viewBox="0 0 22 39" fill="none" xmlns="http://www.w3.org/2000/svg">
<path id="Vector" d="M3.59704 16.7198C2.41837 20.7637 4.45716 32.613 6.94194 36.1239C7.03751 35.685 7.13308 35.3716 7.16494 35.0267C7.26051 34.3998 7.32422 33.7728 7.45164 33.1459C7.57907 32.613 7.89763 32.3622 8.2799 32.4876C8.75775 32.613 8.7896 32.9578 8.75775 33.3653C8.59847 34.9641 8.40733 36.5941 8.18434 38.2242C8.08877 38.9765 7.54721 39.196 6.84638 38.8198C6.55967 38.6631 6.30482 38.4123 6.01812 38.2555C4.20231 37.127 2.41837 36.0299 0.63442 34.9327C0.475139 34.8387 0.284001 34.776 0.220289 34.6506C0.0928643 34.3998 -0.0664167 34.055 0.0291519 33.8669C0.12472 33.6475 0.475138 33.4594 0.729988 33.4594C1.01669 33.4594 1.3034 33.6161 1.59011 33.7415C2.38651 34.1804 3.15106 34.6819 3.94746 35.1208C4.17046 35.2462 4.39345 35.3402 4.71201 35.497C4.68016 35.2775 4.68016 35.1835 4.6483 35.1208C2.25908 29.3529 1.65382 23.3028 1.90867 17.1587C1.94052 16.2496 2.0998 15.3405 2.35465 14.4942C2.70507 13.4283 2.80064 12.3625 2.73693 11.2654C2.64136 9.1024 2.95992 7.00212 3.88375 4.99588C4.39345 3.86737 5.09428 2.8329 6.01811 1.95518C8.15248 0.0116345 10.6373 -0.489926 13.3769 0.481845C15.5431 1.26553 17.2315 2.73886 18.5695 4.55701C21.1179 8.00523 22.1692 11.9237 21.9781 16.1869C21.9781 16.5004 21.8825 16.7825 21.8188 17.0647C21.7551 17.4408 21.5321 17.6603 21.1179 17.6289C20.7038 17.5976 20.5764 17.2841 20.5764 16.9393C20.5764 16.7512 20.6082 16.5317 20.6082 16.3437C20.7994 13.0208 19.9711 9.91743 18.3783 7.00212C17.4863 5.4034 16.3077 4.02411 14.8104 2.92695C13.8229 2.2373 12.7716 1.70439 11.5611 1.54766C9.55415 1.29688 7.86577 1.98652 6.59152 3.4912C4.935 5.37205 4.36159 7.62906 4.23417 10.2309C4.52087 10.0428 4.71201 9.91743 4.87129 9.79204C4.99872 9.698 5.12614 9.57261 5.25357 9.44722C7.26051 7.72311 9.71343 7.37829 12.0708 8.56949C12.6123 8.85162 13.1539 9.16509 13.5999 9.54126C17.3908 12.8014 18.6969 16.9079 17.7412 21.6727C17.2952 23.8044 15.9891 25.3404 13.7273 25.9046C12.2301 26.2808 10.8284 25.936 9.52229 25.1836C8.34362 24.494 7.38793 23.5536 6.55967 22.4564C5.4447 20.9831 4.61644 19.3217 3.94746 17.5976C3.85189 17.3154 3.72447 17.0647 3.59704 16.7198ZM16.7218 19.1336C16.5625 16.8139 15.798 14.4001 14.5237 12.6133C13.7273 11.4848 12.7398 10.513 11.4655 9.88608C9.61786 9.00835 7.89763 9.19644 6.36853 10.5444C5.73141 11.1086 5.22171 11.861 4.74387 12.582C4.55273 12.8954 4.48902 13.3657 4.52087 13.7105C5.06243 16.9706 6.24111 19.9486 8.5029 22.4251C9.10817 23.0834 9.87271 23.6476 10.6373 24.0551C12.8353 25.1836 15.0971 24.3373 15.9572 22.0802C16.3714 21.1712 16.4669 20.1367 16.7218 19.1336Z" fill="#92D5F6"/>
</svg>
