<svg
    xmlns="http://www.w3.org/2000/svg"
    width="100%"
    height="100%"
    viewBox="0 0 669 361"
    fill="none"
    >
    <path
        d="M1 252.804L153.461 33.812C211.124 -49.0074 292.127 -112.652 386.077 -148.955L634.61 -245M11.8318 266.69L164.293 47.6974C221.956 -35.122 302.959 -98.7664 396.909 -135.069L645.442 -231.115M22.6641 280.575L175.125 61.5828C232.788 -21.2365 313.791 -84.8809 407.741 -121.184L656.274 -217.229M33.496 294.461L185.957 75.4683C243.62 -7.3511 324.623 -70.9955 418.573 -107.298L667.106 -203.344M43.7264 307.575L196.188 88.5824C253.85 5.76303 334.854 -57.8814 428.803 -94.1843L677.325 -190.245M54.5582 321.46L207.02 102.468C264.682 19.6487 345.685 -43.9957 439.635 -80.2987L688.156 -176.359M65.3905 335.346L217.852 116.354C275.514 33.5343 356.518 -30.1101 450.468 -66.413L698.989 -162.474M76.2224 349.232L228.684 130.239C286.346 47.4198 367.35 -16.2247 461.299 -52.5276L709.821 -148.588M86.4528 362.346L238.914 143.353C296.577 60.5339 377.58 -3.11053 471.53 -39.4135L720.051 -135.474M97.2847 376.231L249.746 157.239C307.409 74.4193 388.412 10.7749 482.362 -25.528L730.883 -121.589M108.117 390.117L260.578 171.124C318.241 88.3047 399.244 24.6603 493.194 -11.6426L741.715 -107.703M118.949 404.002L271.41 185.01C329.073 102.19 410.076 38.546 504.026 2.24304L752.547 -93.8176M129.179 417.116L281.641 198.124C339.303 115.305 420.306 51.6601 514.256 15.3572L762.777 -80.7035M140.011 431.002L292.472 212.009C350.135 129.19 431.138 65.5455 525.088 29.2426L773.609 -66.8181M150.843 444.887L303.305 225.895C360.967 143.076 441.97 79.4312 535.92 43.1283L784.442 -52.9324M161.675 458.773L314.137 239.78C371.799 156.961 452.802 93.3166 546.752 57.0137L795.286 -39.0315M172.507 472.658L324.969 253.666C382.631 170.846 463.635 107.202 557.584 70.8991L806.118 -25.1461M183.339 486.544L335.801 267.551C393.463 184.732 474.466 121.087 568.416 84.7845L816.95 -11.2607M194.172 500.429L346.633 281.437C404.296 198.618 485.299 134.973 579.249 98.6702L827.782 2.62498M205.003 514.315L357.465 295.323C415.127 212.503 496.131 148.859 590.08 112.556L838.614 16.5106M215.234 527.429L367.695 308.437C425.358 225.617 506.361 161.973 600.311 125.67L848.844 29.6245M226.066 541.315L378.527 322.322C436.19 239.503 517.193 175.858 611.143 139.555L859.676 43.5102M236.898 555.2L389.359 336.208C447.022 253.388 528.025 189.744 621.975 153.441L870.508 57.3956M247.73 569.085L400.191 350.093C457.854 267.274 538.857 203.629 632.807 167.326L881.34 71.2811M257.96 582.2L410.422 363.207C468.084 280.388 549.087 216.743 643.037 180.44L891.571 84.3952M268.792 596.085L421.253 377.093C478.916 294.273 559.919 230.629 653.869 194.326L902.402 98.2808M279.624 609.971L432.086 390.978C489.748 308.159 570.752 244.514 664.701 208.211L913.235 112.166M290.456 623.856L442.918 404.864C500.58 322.045 581.583 258.4 675.533 222.097L924.067 126.052M300.687 636.97L453.148 417.978C510.811 335.158 591.814 271.514 685.764 235.211L934.297 139.166M311.519 650.856L463.98 431.863C521.642 349.044 602.646 285.4 696.596 249.097L945.129 153.051M322.351 664.741L474.812 445.749C532.475 362.93 613.478 299.285 707.428 262.982L955.961 166.937M333.183 678.627L485.644 459.635C543.307 376.815 624.31 313.171 718.26 276.868L966.793 180.823M341.441 690.802L493.902 471.81C551.565 388.99 632.568 325.346 726.518 289.043L975.051 192.998M352.273 704.688L504.734 485.695C562.397 402.876 643.4 339.231 737.35 302.929L985.883 206.883M363.105 718.573L515.566 499.581C573.229 416.761 654.232 353.117 748.182 316.814L996.715 220.769M373.937 732.459L526.398 513.466C584.061 430.647 665.064 367.003 759.014 330.7L1007.55 234.654M384.167 745.573L536.629 526.58C594.291 443.761 675.294 380.117 769.244 343.814L1017.78 247.768M394.999 759.458L547.46 540.466C605.123 457.647 686.126 394.002 780.076 357.699L1028.61 261.654M405.831 773.344L558.293 554.352C615.955 471.532 696.958 407.888 790.908 371.585L1039.44 275.54M416.663 787.229L569.125 568.237C626.787 485.418 707.79 421.773 801.74 385.47L1050.27 289.425M426.894 800.344L579.355 581.351C637.018 498.532 718.021 434.887 811.971 398.584L1060.5 302.539M437.725 814.229L590.187 595.237C647.849 512.417 728.853 448.773 822.803 412.47L1071.34 316.425M448.558 828.115L601.019 609.122C658.682 526.303 739.685 462.658 833.635 426.355L1082.17 330.31M459.39 842L611.851 623.008C669.514 540.188 750.517 476.544 844.467 440.241L1093 344.196"
        stroke="url(#paint0_radial_224_2310)"
        stroke-opacity="0.2"
        stroke-width="1.25"
        stroke-miterlimit="10"
        stroke-linecap="round"
    />
    <defs>
        <radialGradient
        id="paint0_radial_224_2310"
        cx="0"
        cy="0"
        r="1"
        gradientUnits="userSpaceOnUse"
        gradientTransform="translate(500.101 211.981) rotate(90) scale(393.486 395.297)"
        >
        <stop offset="0.295569" stop-color="#00ABFF" />
        <stop offset="1" stop-color="#5EC9ED" stop-opacity="0" />
        </radialGradient>
    </defs>
    </svg>