<svg width="1440" height="365" viewBox="0 0 1440 365" fill="none" xmlns="http://www.w3.org/2000/svg">
<path fill-rule="evenodd" clip-rule="evenodd" d="M0.827793 360.584C0.568613 360.82 0.362553 361.098 0.220763 361.402C0.0734896 361.718 -0.00153252 362.057 2.37242e-05 362.399C2.37242e-05 363.089 0.309932 363.75 0.861573 364.238C1.41321 364.726 2.1614 365 2.94154 365H1437.06C1437.84 365 1438.59 364.726 1439.14 364.238C1439.69 363.75 1440 363.089 1440 362.399C1440 361.766 1439.74 361.156 1439.27 360.683L1439.27 360.682L1079.44 1.12369L989.69 0.686697L720.459 0.0104045L451.216 0L361.477 0.20809L0.827793 360.584ZM999.884 1.30814L1079.44 1.12369L1106.61 28.8708L1021.04 28.4562L999.884 1.30814ZM9.37116 359.798H160.738L178.651 336.843L31.8963 336.794L9.37116 359.798ZM36.3297 332.266L182.246 332.235L200.628 308.679L59.5154 308.588L36.3297 332.266ZM63.3285 304.694L203.778 304.641L222.51 280.635L87.0425 280.476L63.3285 304.694ZM90.2979 277.151L225.319 277.036L244.357 252.638L114.579 252.354L90.2979 277.151ZM117.309 249.566L246.928 249.344L266.258 224.571L142.107 224.241L117.309 249.566ZM144.359 221.94L268.533 221.655L288.094 196.587L169.553 196.212L144.359 221.94ZM171.366 194.359L290.056 194.073L310.017 168.492L197.09 168.088L171.366 194.359ZM198.517 166.632L311.693 166.345L331.874 140.481L224.537 140.059L198.517 166.632ZM225.606 138.967L333.295 138.66L353.723 112.481L251.973 112.039L225.606 138.967ZM252.735 111.261L354.909 110.962L375.569 84.4856L279.379 84.0505L252.735 111.261ZM279.884 83.5346L376.517 83.2705L397.438 56.4595L306.815 56.0315L279.884 83.5346ZM307.116 55.7238L398.212 55.4674L419.222 28.5425L334.172 28.0936L307.116 55.7238ZM334.296 27.9662L361.477 0.20809L441.029 0.595473L419.851 27.7359L334.296 27.9662ZM319.805 359.798H167.811L185.27 336.845L332.629 336.894L319.805 359.798ZM335.255 332.203L188.777 332.234L206.691 308.683L348.374 308.774L335.255 332.203ZM350.719 304.585L209.768 304.638L228.02 280.642L364.035 280.803L350.719 304.585ZM366.211 276.916L230.767 277.031L249.313 252.649L379.717 252.794L366.211 276.916ZM251.833 249.335L270.661 224.583L285.668 224.622L395.415 224.757L381.698 249.257L251.833 249.335ZM285.668 221.616L272.896 221.645L291.947 196.599L306.365 196.645L411.098 196.748L397.21 221.551L285.668 221.616ZM306.365 194.033L293.875 194.064L313.317 168.504L327.096 168.553L426.804 168.695L412.653 193.969L306.365 194.033ZM327.096 166.305L314.966 166.336L334.624 140.492L347.746 140.544L442.469 140.718L428.178 166.241L327.096 166.305ZM347.734 138.619L336.023 138.652L355.923 112.491L368.442 112.545L458.145 112.72L443.68 138.555L347.734 138.619ZM368.442 110.922L357.091 110.955L377.219 84.4931L389.139 84.547L473.816 84.7305L459.183 110.866L368.442 110.922ZM389.139 83.236L378.152 83.266L398.539 56.4647L409.67 56.5173L489.51 56.7018L474.68 83.1876L389.139 83.236ZM409.67 55.4352L399.299 55.4644L419.775 28.5454L430.485 28.6019L505.14 28.7868L490.219 55.4352H409.67ZM430.52 27.7072L420.392 27.7344L441.035 0.5955L451.216 0.645079L520.797 0.822534L505.744 27.7072H430.52ZM326.308 359.798H478.793L486.554 336.945L338.717 336.896L326.308 359.798ZM341.26 332.202L488.175 332.171L496.088 308.869L353.951 308.777L341.26 332.202ZM356.224 304.583L497.561 304.53L505.578 280.923L369.105 280.809L356.224 304.583ZM371.217 276.911L506.963 276.843L515.088 252.917L384.281 252.798L371.217 276.911ZM386.201 249.254L516.352 249.195L524.601 224.904L399.472 224.761L386.201 249.254ZM401.212 221.549L525.762 221.484L534.11 196.902L414.648 196.751L401.212 221.549ZM416.157 193.967L535.13 193.899L543.628 168.872L429.847 168.7L416.157 193.967ZM431.18 166.239L544.546 166.171L553.123 140.912L445.005 140.723L431.18 166.239ZM446.181 138.553L553.948 138.484L562.628 112.924L460.175 112.724L446.181 138.553ZM461.182 110.865L563.347 110.805L572.13 84.9402L475.34 84.7338L461.182 110.865ZM476.179 83.1868L572.742 83.1391L581.649 56.9113L490.527 56.7041L476.179 83.1868ZM491.215 55.4352L582.158 55.411L591.136 28.9722L505.652 28.7881L491.215 55.4352ZM506.238 27.7072H591.566L600.626 1.02614L520.804 0.822553L506.238 27.7072ZM637.682 359.798H484.883L492.255 336.947L640.405 336.996L637.682 359.798ZM640.985 332.139L493.796 332.17L501.313 308.872L643.752 308.964L640.985 332.139ZM644.288 304.474L502.715 304.528L510.329 280.926L647.088 281.025L644.288 304.474ZM647.594 276.788L511.647 276.842L519.365 252.921L650.43 253.038L647.594 276.788ZM650.896 249.135L520.567 249.193L528.403 224.908L653.772 225.048L650.896 249.135ZM654.206 221.42L529.508 221.483L537.437 196.907L657.113 197.069L654.206 221.42ZM657.5 193.83L538.408 193.897L546.48 168.877L660.459 169.053L657.5 193.83ZM660.811 166.102L547.354 166.169L555.501 140.916L663.796 141.102L660.811 166.102ZM664.117 138.415L556.287 138.483L564.531 112.928L667.137 113.128L664.117 138.415ZM667.421 110.745L565.217 110.804L573.56 84.9432L670.478 85.1487L667.421 110.745ZM670.723 83.0929L574.143 83.1384L582.604 56.9135L673.825 57.1197L670.723 83.0929ZM674.033 55.3786L583.089 55.4106L591.618 28.9732L677.165 29.1481L674.033 55.3786ZM677.337 27.7072H592.027L600.635 1.02616L680.498 1.22985L677.337 27.7072ZM643.556 359.798H796.463L794.171 337.006L645.905 336.998L643.556 359.798ZM646.406 332.137L793.682 332.145L791.352 308.987L648.794 308.967L646.406 332.137ZM649.257 304.473L790.9 304.49L788.543 281.053L651.673 281.028L649.257 304.473ZM652.111 276.786L788.116 276.806L785.728 253.071L654.558 253.041L652.111 276.786ZM654.96 249.134L785.335 249.163L782.914 225.09L720.176 225.122L657.442 225.052L654.96 249.134ZM657.817 221.418L720.176 221.387L782.548 221.456L780.1 197.119L720.212 197.155L660.326 197.073L657.817 221.418ZM660.66 193.828L720.212 193.794L779.774 193.873L777.283 169.112L720.247 169.146L663.213 169.058L660.66 193.828ZM663.518 166.1L720.282 166.066L776.986 166.154L774.473 141.168L720.282 141.199L666.093 141.106L663.518 166.1ZM666.371 138.414L720.282 138.38L774.202 138.472L771.66 113.202L720.318 113.232L668.976 113.132L666.371 138.414ZM669.222 110.744L720.318 110.714L771.419 110.812L768.846 85.2294L720.353 85.2545L671.86 85.1517L669.222 110.744ZM672.072 83.0923L720.353 83.0695L768.639 83.1696L766.028 57.2087L720.294 57.2248L674.748 57.1218L672.072 83.0923ZM674.928 55.3783L720.294 55.3624L765.852 55.4654L763.214 29.2366H720.424L677.631 29.1491L674.928 55.3783ZM677.78 27.7072H720.424L763.071 27.8082L760.408 1.33409L720.459 1.33178L680.508 1.22988L677.78 27.7072ZM955.128 359.798H802.323L799.658 337.004L947.815 336.971L955.128 359.798ZM946.285 332.194L799.09 332.147L796.383 308.985L938.832 308.931L946.285 332.194ZM937.439 304.583L795.858 304.493L793.117 281.051L929.884 281.002L937.439 304.583ZM928.571 276.903L792.621 276.809L789.846 253.069L920.916 253.01L928.571 276.903ZM919.722 249.282L789.39 249.166L786.575 225.089L911.95 225.025L919.722 249.282ZM910.852 221.599L786.151 221.46L783.305 197.117L902.986 197.044L910.852 221.599ZM902.021 194.034L782.926 193.877L780.031 169.11L894.014 169.042L902.021 194.034ZM893.146 166.334L779.686 166.158L776.764 141.166L885.063 141.103L893.146 166.334ZM884.281 138.661L776.45 138.476L773.495 113.201L876.105 113.142L884.281 138.661ZM875.422 111.01L773.216 110.815L770.225 85.2286L867.146 85.1784L875.422 111.01ZM866.567 83.3727L769.985 83.1724L766.95 57.2084L858.175 57.1763L866.567 83.3727ZM857.693 55.673L766.746 55.4674L763.68 29.2366H849.223L857.693 55.673ZM848.831 28.0113L763.513 27.8092L760.418 1.33409L840.285 1.33872L848.831 28.0113ZM961.22 359.798H1113.7L1101.35 336.936L953.518 336.97L961.22 359.798ZM951.908 332.195L1098.82 332.242L1086.2 308.875L944.059 308.929L951.908 332.195ZM942.594 304.586L1083.93 304.675L1071.11 280.933L934.637 281L942.594 304.586ZM933.256 276.906L1068.99 277.016L1056 252.949L925.194 253.008L933.256 276.906ZM923.939 249.286L1054.08 249.404L1040.88 224.958L915.754 225.024L923.939 249.286ZM914.6 221.603L1039.14 221.743L1025.77 196.97L906.314 197.042L914.6 221.603ZM905.301 194.038L1024.27 194.199L1010.64 168.97L896.868 169.041L905.301 194.038ZM895.956 166.338L1009.32 166.515L995.558 141.036L887.443 141.101L895.956 166.338ZM886.621 138.665L994.38 138.854L980.462 113.081L878.01 113.141L886.621 138.665ZM877.293 111.014L979.451 111.209L965.365 85.1263L868.577 85.1777L877.293 111.014ZM867.969 83.3756L964.529 83.578L950.258 57.152L859.131 57.176L867.969 83.3756ZM858.624 55.6751L949.572 55.8819L935.182 29.2366H849.705L858.624 55.6751ZM849.292 28.0124L934.632 28.2168L920.117 1.33984L840.294 1.33872L849.292 28.0124ZM1272.2 359.798H1120.2L1107.44 336.935L1254.81 336.901L1272.2 359.798ZM1251.31 332.29L1104.82 332.244L1091.77 308.873L1233.48 308.82L1251.31 332.29ZM1230.4 304.767L1089.43 304.678L1076.18 280.928L1212.2 280.808L1230.4 304.767ZM1209.45 277.187L1074 277.022L1060.56 252.947L1190.97 252.864L1209.45 277.187ZM1058.58 249.409L1044.94 224.956L1154.68 224.893L1169.7 224.862L1188.45 249.549L1058.58 249.409ZM1154.68 221.876L1043.15 221.748L1029.31 196.968L1134.06 196.905L1148.44 196.87L1167.46 221.911L1154.68 221.876ZM1134.06 194.356L1027.77 194.204L1013.69 168.967L1113.43 168.896L1127.16 168.86L1146.56 194.395L1134.06 194.356ZM1113.47 166.68L1012.32 166.519L998.095 141.034L1092.81 140.97L1105.94 140.933L1125.54 166.723L1113.47 166.68ZM1092.81 139.035L996.88 138.858L982.492 113.08L1072.18 113.024L1084.71 112.986L1104.54 139.081L1092.81 139.035ZM1072.19 111.39L981.45 111.213L966.889 85.1255L1051.57 85.0776L1063.49 85.0428L1083.54 111.44L1072.19 111.39ZM1051.57 83.7666L966.028 83.5812L951.276 57.152H1030.92L1042.28 57.12L1062.56 83.8174L1051.57 83.7666ZM1030.92 56.0699L950.568 55.8842L935.695 29.2366H1010.32L1021.07 29.2077L1041.52 56.1199L1030.92 56.0699ZM1010.32 28.4043L935.127 28.2181L920.125 1.33984L989.69 1.33178L999.879 1.30815L1020.5 28.4536L1010.32 28.4043ZM1021.63 29.2062L1042.6 56.1251L1133.72 56.5554L1106.71 28.9771L1021.63 29.2062ZM1043.38 57.1169L1064.19 83.8249L1160.85 84.2713L1134.02 56.8619L1043.38 57.1169ZM1065.14 85.038L1085.72 111.449L1187.9 111.893L1161.33 84.7569L1065.14 85.038ZM1086.91 112.979L1107.26 139.092L1214.95 139.516L1188.66 112.673L1086.91 112.979ZM1108.69 140.925L1128.8 166.735L1241.99 167.139L1216.03 140.619L1108.69 140.925ZM1130.45 168.852L1150.37 194.408L1269.06 194.784L1243.38 168.556L1130.45 168.852ZM1152.28 196.861L1171.81 221.922L1295.96 222.261L1270.81 196.575L1152.28 196.861ZM1174.1 224.853L1193.35 249.56L1322.97 249.845L1298.25 224.594L1174.1 224.853ZM1195.92 252.855L1214.89 277.193L1349.91 277.357L1325.69 252.624L1195.92 252.855ZM1217.7 280.803L1236.38 304.77L1376.84 304.859L1353.17 280.683L1217.7 280.803ZM1239.53 308.818L1257.83 332.292L1403.74 332.339L1380.66 308.764L1239.53 308.818ZM1261.42 336.9L1279.26 359.798H1430.63L1408.18 336.867L1261.42 336.9Z" fill="url(#paint0_radial_301_2203)" fill-opacity="0.3"/>
<defs>
<radialGradient id="paint0_radial_301_2203" cx="0" cy="0" r="1" gradientUnits="userSpaceOnUse" gradientTransform="translate(720 182.5) rotate(90) scale(182.5 720)">
<stop stop-color="white" stop-opacity="0.08"/>
<stop offset="1" stop-color="white" stop-opacity="0"/>
</radialGradient>
</defs>
</svg>
