<svg xmlns="http://www.w3.org/2000/svg" width="21" height="32" viewBox="0 0 21 32" fill="none">
<g clip-path="url(#clip0_329_282)">
<path fill-rule="evenodd" clip-rule="evenodd" d="M10.5004 0L15.9966 2.82541V18.2591L21.0004 20.8314V26.6018L10.5004 31.9995L5.00423 29.1741V24.0295L0.000427246 21.4572V5.3977L10.5004 0ZM5.98901 24.0295L10.008 21.9634V30.6144L5.98901 28.5483V24.0295ZM10.9928 30.6144L20.0156 25.976V21.9634L15.0118 24.5357V14.2466L10.9928 16.3126V30.6144ZM15.0118 13.1146V3.9574L5.98901 8.59574V22.8975L10.008 20.8314V15.6869L15.0118 13.1146ZM5.49662 7.71687L14.4032 3.13828L10.5004 1.13199L1.59383 5.71057L5.49662 7.71687ZM0.985204 6.52969V20.8314L5.00423 22.8975V8.59574L0.985204 6.52969ZM19.407 21.1443L15.9966 22.8975V19.3911L19.407 21.1443ZM12.2438 7.78528V11.8111L8.75709 13.6035V9.57767L12.2438 7.78528ZM9.74187 10.2034V11.9653L11.259 11.1854V9.42351L9.74187 10.2034Z" fill="#56ADD9"/>
</g>
<defs>
<clipPath id="clip0_329_282">
<rect width="21" height="32" fill="white"/>
</clipPath>
</defs>
</svg>